<svg width="36" height="36" viewBox="0 0 36 36" fill="none" xmlns="http://www.w3.org/2000/svg">
<g id="&#208;&#151;&#208;&#189;&#208;&#176;&#209;&#135;&#208;&#186;&#208;&#184; &#209;&#129;&#208;&#190;&#209;&#134; &#209;&#129;&#208;&#181;&#209;&#130;&#208;&#181;&#208;&#185;">
<path id="Vector" d="M30.5988 1.79688H5.39883C3.41883 1.79688 1.79883 3.41688 1.79883 5.39688V30.5969C1.79883 32.5787 3.41883 34.1969 5.39883 34.1969H17.9988V21.5969H14.3988V17.1419H17.9988V13.4519C17.9988 9.55667 20.1804 6.82067 24.7776 6.82067L28.023 6.82428V11.5133H25.8684C24.0792 11.5133 23.3988 12.8561 23.3988 14.1017V17.1437H28.0212L26.9988 21.5969H23.3988V34.1969H30.5988C32.5788 34.1969 34.1988 32.5787 34.1988 30.5969V5.39688C34.1988 3.41688 32.5788 1.79688 30.5988 1.79688Z" fill="#7F7F7F"/>
</g>
</svg>
