<svg width="36" height="36" viewBox="0 0 36 36" fill="none" xmlns="http://www.w3.org/2000/svg">
<g id="&#208;&#151;&#208;&#189;&#208;&#176;&#209;&#135;&#208;&#186;&#208;&#184; &#209;&#129;&#208;&#190;&#209;&#134; &#209;&#129;&#208;&#181;&#209;&#130;&#208;&#181;&#208;&#185;">
<path id="Vector" d="M30.5988 1.79688H5.39883C3.41883 1.79688 1.79883 3.41688 1.79883 5.39688V30.5969C1.79883 32.5787 3.41883 34.1969 5.39883 34.1969H30.5988C32.5788 34.1969 34.1988 32.5787 34.1988 30.5969V5.39688C34.1988 3.41688 32.5788 1.79688 30.5988 1.79688ZM17.97 27.9383C20.614 27.9378 23.1495 26.8872 25.0189 25.0174C26.8882 23.1477 27.9384 20.612 27.9384 17.9681C27.9384 17.3597 27.861 16.7729 27.753 16.1969H30.5988V29.1857C30.5988 29.3492 30.5665 29.5112 30.5038 29.6622C30.441 29.8133 30.3491 29.9504 30.2331 30.0658C30.1172 30.1812 29.9797 30.2726 29.8284 30.3347C29.6771 30.3968 29.515 30.4284 29.3514 30.4277H6.64623C6.48267 30.4284 6.32059 30.3968 6.16928 30.3347C6.01797 30.2726 5.88041 30.1812 5.76451 30.0658C5.64861 29.9504 5.55664 29.8133 5.49388 29.6622C5.43113 29.5112 5.39883 29.3492 5.39883 29.1857V16.1969H8.18703C8.07723 16.7729 7.99983 17.3597 7.99983 17.9681C8.00031 20.6122 9.05089 23.1479 10.9206 25.0175C12.7902 26.8872 15.3259 27.9378 17.97 27.9383ZM11.7402 17.9681C11.7402 17.15 11.9014 16.3399 12.2144 15.584C12.5275 14.8282 12.9864 14.1414 13.5649 13.5629C14.1434 12.9845 14.8302 12.5256 15.586 12.2125C16.3418 11.8994 17.1519 11.7383 17.97 11.7383C18.7881 11.7383 19.5982 11.8994 20.3541 12.2125C21.1099 12.5256 21.7967 12.9845 22.3752 13.5629C22.9537 14.1414 23.4125 14.8282 23.7256 15.584C24.0387 16.3399 24.1998 17.15 24.1998 17.9681C24.1998 19.6203 23.5435 21.2049 22.3752 22.3732C21.2068 23.5415 19.6223 24.1979 17.97 24.1979C16.3178 24.1979 14.7332 23.5415 13.5649 22.3732C12.3966 21.2049 11.7402 19.6203 11.7402 17.9681ZM29.3514 10.7969H26.4444C26.1144 10.7959 25.7981 10.6644 25.5647 10.431C25.3313 10.1976 25.1998 9.88134 25.1988 9.55128V6.64068C25.1988 5.95307 25.7568 5.39688 26.4426 5.39688H29.3496C30.0408 5.39688 30.5988 5.95307 30.5988 6.64068V9.54948C30.5988 10.2353 30.0408 10.7969 29.3514 10.7969Z" fill="#7F7F7F"/>
</g>
</svg>
