<svg width="36" height="36" viewBox="0 0 36 36" fill="none" xmlns="http://www.w3.org/2000/svg">
<g id="&#208;&#151;&#208;&#189;&#208;&#176;&#209;&#135;&#208;&#186;&#208;&#184; &#209;&#129;&#208;&#190;&#209;&#134; &#209;&#129;&#208;&#181;&#209;&#130;&#208;&#181;&#208;&#185;">
<path id="Vector" d="M34.1988 30.5969V5.39688C34.1988 3.41688 32.5734 1.79688 30.5898 1.79688H5.40783C3.33783 1.79688 1.79883 3.33228 1.79883 5.39688V30.5969C1.79883 32.6633 3.33783 34.1969 5.40783 34.1969H30.5898C31.545 34.1955 32.4608 33.816 33.137 33.1414C33.8133 32.4669 34.195 31.552 34.1988 30.5969ZM27.33 20.8895C27.33 20.8895 29.3676 22.9001 29.8698 23.8325C29.8842 23.8523 29.8896 23.8703 29.895 23.8775C30.0984 24.2195 30.1506 24.4895 30.048 24.6875C29.8788 25.0169 29.3028 25.1825 29.1066 25.1969H25.5084C25.2564 25.1969 24.7344 25.1321 24.1008 24.6947C23.6148 24.3563 23.1342 23.7965 22.6662 23.2511C21.9678 22.4411 21.363 21.7391 20.7546 21.7391C20.6774 21.7389 20.6008 21.7517 20.5278 21.7769C20.0652 21.9245 19.4784 22.5815 19.4784 24.3365C19.4784 24.8855 19.0464 25.1987 18.7404 25.1987H17.0916C16.53 25.1987 13.605 25.0025 11.0148 22.2683C7.83603 18.9203 4.98123 12.2045 4.95603 12.1451C4.77603 11.7113 5.14863 11.4755 5.55363 11.4755H9.18963C9.67743 11.4755 9.83403 11.7707 9.94563 12.0353C10.0716 12.3359 10.5468 13.5491 11.3244 14.9135C12.5898 17.1329 13.3692 18.0365 13.9902 18.0365C14.1063 18.0358 14.2204 18.0055 14.3214 17.9483C15.1332 17.5001 14.982 14.6057 14.946 14.0081C14.946 13.8947 14.9442 12.7139 14.5302 12.1469C14.2314 11.7365 13.7256 11.5799 13.4196 11.5205C13.5444 11.3485 13.7086 11.209 13.8984 11.1137C14.4546 10.8365 15.4572 10.7969 16.4544 10.7969H17.0088C18.0906 10.8113 18.3714 10.8815 18.762 10.9805C19.5522 11.1695 19.5684 11.6825 19.4982 13.4285C19.4784 13.9253 19.4568 14.4887 19.4568 15.1493C19.4568 15.2915 19.4514 15.4481 19.4514 15.6101C19.4262 16.5029 19.3974 17.5127 20.0274 17.9267C20.109 17.9777 20.203 18.0051 20.2992 18.0059C20.5188 18.0059 21.1758 18.0059 22.956 14.9513C23.739 13.6031 24.342 12.0119 24.3834 11.8931C24.4463 11.7646 24.5374 11.652 24.6498 11.5637C24.742 11.5158 24.8447 11.4917 24.9486 11.4935H29.2236C29.6916 11.4935 30.0084 11.5637 30.0678 11.7419C30.1704 12.0281 30.048 12.9011 28.095 15.5399L27.2256 16.6919C25.4544 19.0103 25.4544 19.1291 27.33 20.8895Z" fill="#7F7F7F"/>
</g>
</svg>
