<svg width="24" height="18" viewBox="0 0 24 18" fill="none" xmlns="http://www.w3.org/2000/svg">
<g id="Group">
<path id="Vector" fill-rule="evenodd" clip-rule="evenodd" d="M0 0H36.0038V11.9566H0V0Z" fill="#B20000"/>
<path id="Vector_2" fill-rule="evenodd" clip-rule="evenodd" d="M0 11.957H36.0038V18.0004H0V11.957Z" fill="#429F00"/>
<path id="Vector_3" fill-rule="evenodd" clip-rule="evenodd" d="M0 0H3.98714V18H0V0Z" fill="white"/>
<g id="Group_2">
<path id="Vector_4" fill-rule="evenodd" clip-rule="evenodd" d="M0.189453 0.305859H0.379317V0.611719H0.189453V0.305859ZM0.759045 0.305859H1.32864V0.611719H0.759045V0.305859ZM0.948909 0H1.13877V0.305859H0.948909V0ZM1.89823 0H2.08809V0.305859H1.89823V0ZM2.65769 0.305859H3.22728V0.611719H2.65769V0.305859ZM2.84755 0H3.03741V0.305859H2.84755V0ZM0.569181 0.611719H0.948909V0.914062H0.569181V0.611719ZM1.13877 0.611719H1.5185V0.914062H1.13877V0.611719ZM2.46782 0.611719H2.84755V0.914062H2.46782V0.611719ZM3.03741 0.611719H3.41714V0.914062H3.03741V0.611719ZM0.379317 0.914062H0.759045V1.21992H0.379317V0.914062ZM1.32864 0.914062H1.70837V1.21992H1.32864V0.914062ZM2.27796 0.914062H2.65769V1.21992H2.27796V0.914062ZM3.22728 0.914062H3.60701V1.21992H3.22728V0.914062ZM3.60701 0.305859H3.79687V0.611719H3.60701V0.305859ZM0.189453 1.21992H0.569181V1.52578H0.189453V1.21992ZM1.5185 1.21992H1.89823V1.52578H1.5185V1.21992ZM3.41714 1.21992H3.79687V1.52578H3.41714V1.21992ZM0.379317 2.13398H0.759045V2.43984H0.379317V2.13398ZM0.569181 2.43984H0.948909V2.7457H0.569181V2.43984ZM1.32864 2.1375H1.70837V2.43984H1.32864V2.1375ZM1.13877 2.43984H1.5185V2.7457H1.13877V2.43984ZM0.759045 2.7457H1.32864V3.05156H0.759045V2.7457Z" fill="#B20000"/>
<path id="Vector_5" fill-rule="evenodd" clip-rule="evenodd" d="M0.94932 3.05078H1.13918V3.35664H0.94932V3.05078ZM2.27837 2.13672H2.6581V2.43906H2.27837V2.13672ZM2.46823 2.43906H2.84796V2.74492H2.46823V2.43906ZM3.22769 2.13672H3.60742V2.43906H3.22769V2.13672ZM3.03782 2.43906H3.41755V2.74492H3.03782V2.43906ZM2.6581 2.74492H3.22769V3.05078H2.6581V2.74492ZM2.84796 3.05078H3.03782V3.35664H2.84796V3.05078ZM1.89864 2.74141H2.0885V3.04727H1.89864V2.74141ZM0 2.74141H0.189864V3.04727H0V2.74141ZM3.79728 2.74141H3.98714V3.04727H3.79728V2.74141ZM0.94932 4.26719H1.13918V4.57305H0.94932V4.26719ZM0.759456 4.57656H1.32905V4.87891H0.759456V4.57656ZM0.569592 4.87891H1.51891V5.18477H0.569592V4.87891ZM2.84796 4.2707H3.03782V4.57656H2.84796V4.2707ZM2.6581 4.57656H3.22769V4.87891H2.6581V4.57656ZM2.46823 4.87891H3.41755V5.18477H2.46823V4.87891ZM2.6581 6.40469H3.60742V6.71055H2.6581V6.40469ZM2.27837 5.18477H3.60742V5.49062H2.27837V5.18477ZM0.379728 5.18477H1.70878V5.49062H0.379728V5.18477ZM0.569592 6.71055H1.13918V7.01641H0.569592V6.71055ZM0.379728 6.40469H1.32905V6.71055H0.379728V6.40469ZM3.03782 5.8H3.98714V6.10586H3.03782V5.8ZM2.84796 6.71406H3.41755V7.01992H2.84796V6.71406Z" fill="#B20000"/>
<path id="Vector_6" fill-rule="evenodd" clip-rule="evenodd" d="M0.759456 7.01602H0.94932V7.32188H0.759456V7.01602ZM3.03782 7.01602H3.22769V7.32188H3.03782V7.01602ZM0 5.79609H0.94932V6.10195H0V5.79609ZM1.70878 6.4043H2.27837V6.71016H1.70878V6.4043ZM1.89864 6.71367H2.0885V7.01953H1.89864V6.71367ZM1.32905 5.79961H2.6581V6.10547H1.32905V5.79961ZM2.0885 1.21875H2.46823V1.52461H2.0885V1.21875ZM1.70878 1.52461H2.27837V1.83047H1.70878V1.52461ZM1.51891 1.83047H1.89864V2.13281H1.51891V1.83047ZM2.0885 1.83047H2.46823V2.13281H2.0885V1.83047ZM0 1.52461H0.379728V1.83047H0V1.52461ZM0.189864 1.83047H0.569592V2.13281H0.189864V1.83047ZM3.60742 1.52461H3.98714V1.82695H3.60742V1.52461ZM3.41755 1.82695H3.79728V2.1293H3.41755V1.82695ZM0 4.56914H0.189864V4.875H0V4.56914ZM3.79728 4.56914H3.98714V4.875H3.79728V4.56914ZM1.70878 7.0125H2.27837V7.31836H1.70878V7.0125ZM1.51891 7.31836H1.89864V7.6207H1.51891V7.31836ZM2.0885 7.31836H2.46823V7.6207H2.0885V7.31836ZM1.32905 7.6207H1.70878V7.92656H1.32905V7.6207ZM2.27837 7.6207H2.6581V7.92656H2.27837V7.6207ZM1.13918 7.92656H1.51891V8.23242H1.13918V7.92656ZM2.46823 7.92656H2.84796V8.23242H2.46823V7.92656ZM0.94932 8.23594H1.32905V8.5418H0.94932V8.23594ZM2.6581 8.23594H3.03782V8.5418H2.6581V8.23594ZM0.569592 8.5418H1.13918V8.84766H0.569592V8.5418ZM2.84796 8.5418H3.41755V8.84766H2.84796V8.5418ZM3.22769 8.23594H3.60742V8.5418H3.22769V8.23594ZM3.41755 7.93008H3.79728V8.23594H3.41755V7.93008ZM3.60742 7.62422H3.98714V7.93008H3.60742V7.62422ZM0.379728 8.23594H0.759456V8.5418H0.379728V8.23594ZM0.189864 7.93008H0.569592V8.23594H0.189864V7.93008ZM0 7.62773H0.379728V7.93359H0V7.62773ZM0.759456 8.85117H0.94932V9.15352H0.759456V8.85117ZM3.03782 8.85117H3.22769V9.15352H3.03782V8.85117ZM1.89864 7.93711H2.0885V8.23945H1.89864V7.93711ZM1.32905 8.85117H1.51891V9.15352H1.32905V8.85117ZM2.46823 8.85117H2.6581V9.15352H2.46823V8.85117ZM1.89864 8.85117H2.0885V9.15352H1.89864V8.85117ZM0 8.85117H0.189864V9.15352H0L0 8.85117ZM3.79728 8.85117H3.98714V9.15352H3.79728V8.85117ZM1.89864 4.57617H2.0885V4.87852H1.89864V4.57617ZM0.94932 1.52461H1.13918V1.83047H0.94932V1.52461ZM2.84796 1.52461H3.03782V1.83047H2.84796V1.52461ZM1.70878 3.65859H2.27837V3.96445H1.70878V3.65859ZM1.32905 3.96445H1.89864V4.27031H1.32905V3.96445ZM1.51891 4.27031H1.70878V4.57617H1.51891V4.27031ZM1.13918 3.65859H1.51891V3.96445H1.13918V3.65859ZM1.32905 3.35625H1.89864V3.65859H1.32905V3.35625ZM1.51891 3.05039H1.70878V3.35625H1.51891V3.05039ZM2.0885 3.35625H2.6581V3.65859H2.0885V3.35625ZM2.27837 3.05039H2.46823V3.35625H2.27837V3.05039ZM2.46823 3.65859H2.84796V3.96445H2.46823V3.65859ZM2.0885 3.96445H2.6581V4.27031H2.0885V3.96445ZM2.27837 4.27031H2.46823V4.57617H2.27837V4.27031ZM3.03782 3.65859H3.41755V3.96445H3.03782V3.65859ZM3.22769 3.35625H3.79728V3.65859H3.22769V3.35625ZM3.60742 3.65859H3.98714V3.96445H3.60742V3.65859ZM3.22769 3.96445H3.79728V4.27031H3.22769V3.96445ZM3.41755 4.27031H3.60742V4.57617H3.41755V4.27031ZM3.41755 3.05039H3.60742V3.35625H3.41755V3.05039ZM0 3.65508H0.379728V3.96094H0V3.65508ZM0.189864 3.35273H0.759456V3.65508H0.189864V3.35273ZM0.569592 3.65508H0.94932V3.96094H0.569592V3.65508ZM0.189864 3.96094H0.759456V4.2668H0.189864V3.96094Z" fill="#B20000"/>
<path id="Vector_7" fill-rule="evenodd" clip-rule="evenodd" d="M0.379728 4.2707H0.569592V4.57656H0.379728V4.2707ZM0.379728 3.05078H0.569592V3.35664H0.379728V3.05078ZM0.189864 5.49062H0.94932V5.79648H0.189864V5.49062ZM1.13918 5.49062H1.89864V5.79648H1.13918V5.49062ZM2.0885 5.49062H2.84796V5.79648H2.0885V5.49062ZM3.03782 5.49062H3.79728V5.79648H3.03782V5.49062ZM1.51891 6.10234H2.46823V6.40469H1.51891V6.10234ZM0.189864 6.10234H1.13918V6.40469H0.189864V6.10234ZM2.84796 6.10234H3.79728V6.40469H2.84796V6.10234ZM3.79728 7.32227H3.98714V7.62461H3.79728V7.32227ZM0 7.32227H0.189864V7.62461H0V7.32227ZM0.189864 17.6934H0.379728V17.391H0.189864V17.6934ZM0.759456 17.6934H1.32905V17.391H0.759456V17.6934ZM0.94932 17.9992H1.13918V17.6934H0.94932V17.9992ZM1.89864 17.9992H2.0885V17.6934H1.89864V17.9992ZM2.6581 17.6934H3.22769V17.3875H2.6581V17.6934ZM2.84796 17.9992H3.03782V17.6934H2.84796V17.9992ZM0.569592 17.3875H0.94932V17.0852H0.569592V17.3875ZM1.13918 17.3875H1.51891V17.0852H1.13918V17.3875ZM2.46823 17.3875H2.84796V17.0852H2.46823V17.3875ZM3.03782 17.3875H3.41755V17.0852H3.03782V17.3875ZM1.32905 17.0852H1.70878V16.7793H1.32905V17.0852ZM2.27837 17.0852H2.6581V16.7793H2.27837V17.0852ZM3.22769 17.0852H3.60742V16.7793H3.22769V17.0852ZM3.60742 17.6934H3.79728V17.3875H3.60742V17.6934ZM0.189864 16.7793H0.569592V16.4734H0.189864V16.7793ZM1.51891 16.7793H1.89864V16.4734H1.51891V16.7793ZM3.41755 16.7793H3.79728V16.4734H3.41755V16.7793ZM0.379728 15.8652H0.759456V15.5594H0.379728V15.8652ZM0.569592 15.5594H0.94932V15.2535H0.569592V15.5594ZM1.32905 15.8652H1.70878V15.5594H1.32905V15.8652ZM1.13918 15.5594H1.51891V15.2535H1.13918V15.5594ZM0.759456 15.2535H1.32905V14.9477H0.759456V15.2535ZM0.94932 14.9477H1.13918V14.6453H0.94932V14.9477ZM2.27837 15.8617H2.6581V15.5594H2.27837V15.8617ZM2.46823 15.5594H2.84796V15.2535H2.46823V15.5594ZM3.22769 15.8652H3.60742V15.5594H3.22769V15.8652ZM3.03782 15.5594H3.41755V15.2535H3.03782V15.5594ZM2.6581 15.2535H3.22769V14.9477H2.6581V15.2535ZM2.84796 14.9477H3.03782V14.6453H2.84796V14.9477ZM1.89864 15.257H2.0885V14.9512H1.89864V15.257ZM0 15.257H0.189864V14.9512H0V15.257ZM3.79728 15.257H3.98714V14.9512H3.79728V15.257ZM0.94932 13.7313H1.13918V13.4254H0.94932V13.7313ZM0.759456 13.4219H1.32905V13.1195H0.759456V13.4219ZM0.569592 13.1195H1.51891V12.8137H0.569592V13.1195ZM2.84796 13.7277H3.03782V13.4219H2.84796V13.7277Z" fill="#B20000"/>
<path id="Vector_8" fill-rule="evenodd" clip-rule="evenodd" d="M2.6581 13.4211H3.22769V13.1188H2.6581V13.4211ZM2.46823 13.1188H3.41755V12.8129H2.46823V13.1188ZM2.6581 11.593H3.60742V11.2836H2.6581V11.593ZM2.27837 12.8129H3.60742V12.507H2.27837V12.8129ZM0.379728 12.8129H1.70878V12.507H0.379728V12.8129ZM0.569592 11.2871H1.13918V10.9812H0.569592V11.2871ZM0.379728 11.593H1.32905V11.2836H0.379728V11.593ZM3.03782 12.1977H3.98714V11.8918H3.03782V12.1977ZM2.84796 11.2836H3.41755V10.9777H2.84796V11.2836ZM0 12.1977H0.94932V11.8918H0V12.1977ZM1.70878 11.5895H2.27837V11.2836H1.70878V11.5895ZM1.89864 11.2836H2.0885V10.9777H1.89864V11.2836ZM1.32905 12.1977H2.6581V11.8918H1.32905V12.1977ZM2.0885 16.775H2.46823V16.4691H2.0885V16.775ZM1.70878 16.4691H2.27837V16.1703H1.70878V16.4691ZM1.51891 16.1633H1.89864V15.8574H1.51891V16.1633ZM2.0885 16.1633H2.46823V15.8574H2.0885V16.1633ZM0 16.4727H0.379728V16.1703H0V16.4727ZM0.189864 16.1668H0.569592V15.8645H0.189864V16.1668ZM3.60742 16.4727H3.98714V16.1703H3.60742V16.4727ZM3.41755 16.1668H3.79728V15.8645H3.41755V16.1668ZM0 13.4281H0.189864V13.1223H0V13.4281ZM3.79728 13.4281H3.98714V13.1223H3.79728V13.4281ZM1.51891 10.6789H1.89864V10.3766H1.51891V10.6789ZM2.0885 10.6789H2.46823V10.3766H2.0885V10.6789ZM1.32905 10.3766H1.70878V10.0707H1.32905V10.3766ZM2.27837 10.3766H2.6581V10.0707H2.27837V10.3766ZM1.13918 10.0707H1.51891V9.76484H1.13918V10.0707ZM2.46823 10.0707H2.84796V9.76484H2.46823V10.0707ZM0.94932 9.76133H1.32905V9.45547H0.94932V9.76133ZM2.6581 9.76133H3.03782V9.45547H2.6581V9.76133ZM0.569592 9.45547H1.13918V9.14961H0.569592V9.45547ZM2.84796 9.45547H3.41755V9.14961H2.84796V9.45547ZM3.22769 9.76133H3.60742V9.45547H3.22769V9.76133ZM3.41755 10.0672H3.79728V9.76133H3.41755V10.0672ZM3.60742 10.373H3.98714V10.0672H3.60742V10.373ZM0.379728 9.76133H0.759456V9.45547H0.379728V9.76133ZM0.189864 10.0672H0.569592V9.76133H0.189864V10.0672ZM0 10.3695H0.379728V10.0637H0V10.3695ZM0.759456 9.14609H0.94932V8.84375H0.759456V9.14609ZM1.89864 10.0602H2.0885V9.75781H1.89864V10.0602ZM1.89864 13.4176H2.0885V13.1152H1.89864V13.4176ZM0.94932 16.4691H1.13918V16.1703H0.94932V16.4691ZM2.84796 16.4691H3.03782V16.1703H2.84796V16.4691ZM1.70878 14.3422H2.27837V14.0363H1.70878V14.3422ZM1.32905 14.0363H1.89864V13.7305H1.32905V14.0363ZM1.51891 13.7305H1.70878V13.4246H1.51891V13.7305ZM1.13918 14.3422H1.51891V14.0363H1.13918V14.3422ZM1.32905 14.641H1.89864V14.3422H1.32905V14.641ZM1.51891 14.9469H1.70878V14.6445H1.51891V14.9469ZM2.0885 14.641H2.6581V14.3422H2.0885V14.641ZM2.27837 14.9469H2.46823V14.6445H2.27837V14.9469ZM2.46823 14.3387H2.84796V14.0328H2.46823V14.3387ZM2.0885 14.0328H2.6581V13.727H2.0885V14.0328ZM2.27837 13.727H2.46823V13.4211H2.27837V13.727ZM3.03782 14.3422H3.41755V14.0363H3.03782V14.3422ZM3.22769 14.641H3.79728V14.3422H3.22769V14.641ZM3.60742 14.3387H3.98714V14.0328H3.60742V14.3387ZM3.22769 14.0328H3.79728V13.727H3.22769V14.0328ZM3.41755 13.727H3.60742V13.4211H3.41755V13.727ZM3.41755 14.9469H3.60742V14.6445H3.41755V14.9469ZM0 14.3422H0.379728V14.0363H0V14.3422ZM0.189864 14.641H0.759456V14.3422H0.189864V14.641Z" fill="#B20000"/>
<path id="Vector_9" fill-rule="evenodd" clip-rule="evenodd" d="M0.569592 14.3402H0.94932V14.0344H0.569592V14.3402ZM0.189864 14.0344H0.759456V13.7285H0.189864V14.0344ZM0.379728 13.7285H0.569592V13.4227H0.379728V13.7285ZM0.379728 14.9484H0.569592V14.6461H0.379728V14.9484ZM0.189864 12.5086H0.94932V12.2027H0.189864V12.5086ZM1.13918 12.5086H1.89864V12.2027H1.13918V12.5086ZM2.0885 12.5086H2.84796V12.2027H2.0885V12.5086ZM3.03782 12.5086H3.79728V12.2027H3.03782V12.5086ZM1.51891 11.8969H2.46823V11.5945H1.51891V11.8969ZM0.189864 11.8969H1.13918V11.5945H0.189864V11.8969ZM2.84796 11.8969H3.79728V11.5945H2.84796V11.8969ZM3.79728 10.6805H3.98714V10.3711H3.79728V10.6805ZM0 10.6805H0.189864V10.3711H0V10.6805ZM1.70878 9.15117H1.89864V9.45703H1.70878V9.15117ZM2.0885 9.15117H2.27837V9.45703H2.0885V9.15117ZM2.0885 8.54297H2.27837V8.84883H2.0885V8.54297ZM1.70878 8.54297H1.89864V8.84883H1.70878V8.54297ZM0.379728 16.7801H0.759456V17.0859H0.379728V16.7801ZM3.03782 10.9828H3.22769V10.677H3.03782V10.9828ZM0.759456 10.9828H0.94932V10.677H0.759456V10.9828ZM1.70878 10.677H2.27837V10.9828H1.70878V10.677Z" fill="#B20000"/>
</g>
</g>
</svg>
